<?xml version="1.0" encoding="utf-8"?>
<!-- Generator: Adobe Illustrator 28.0.0, SVG Export Plug-In . SVG Version: 6.00 Build 0)  -->
<svg version="1.1" id="Calque_1" xmlns="http://www.w3.org/2000/svg" xmlns:xlink="http://www.w3.org/1999/xlink" x="0px" y="0px"
	 viewBox="0 0 40 40" style="enable-background:new 0 0 40 40;" xml:space="preserve">
<style type="text/css">
	.st0{fill:#FF572E;}
</style>
<path class="st0" d="M21.2,18.8c0-2.1,1.7-3.8,3.8-3.8l0,0h3.8c0.7,0,1.2,0.6,1.2,1.2c0,0.7-0.6,1.2-1.2,1.2H25
	c-0.7,0-1.2,0.6-1.2,1.2V20c0,0.7,0.6,1.2,1.2,1.2h1.2c2.1,0,3.8,1.7,3.8,3.8l0,0v1.2c0,2.1-1.7,3.8-3.8,3.8l0,0h-3.8
	c-0.7,0-1.2-0.6-1.2-1.2s0.6-1.2,1.2-1.2h3.8c0.7,0,1.2-0.6,1.2-1.2V25c0-0.7-0.6-1.2-1.2-1.2H25c-2.1,0-3.8-1.7-3.8-3.8l0,0V18.8z
	 M20,16.2c0-0.7-0.6-1.2-1.2-1.2s-1.2,0.6-1.2,1.2v10c0,0.7-0.6,1.2-1.2,1.2h-2.5c-0.7,0-1.2,0.6-1.2,1.2s0.6,1.2,1.2,1.2h2.5
	c2.1,0,3.8-1.7,3.8-3.8l0,0V16.2z M5,11.2C5,7.8,7.8,5,11.2,5h17.5c3.5,0,6.2,2.8,6.2,6.2v17.5c0,3.5-2.8,6.2-6.2,6.2l0,0H11.2
	C7.8,35,5,32.2,5,28.8l0,0V11.2z M11.2,7.5c-2.1,0-3.8,1.7-3.8,3.8v17.5c0,2.1,1.7,3.8,3.8,3.8l0,0h17.5c2.1,0,3.8-1.7,3.8-3.8l0,0
	V11.2c0-2.1-1.7-3.8-3.8-3.8H11.2z"/>
</svg>
